<svg viewBox="0 0 100 100" xmlns="http://www.w3.org/2000/svg" xmlns:xlink="http://www.w3.org/1999/xlink" width="100" height="100">
<defs>



<g id="bg" fill="#ff9311" class="bg"><path d="M0,50a50,50 0 1,0 100,0a50,50 0 1,0 -100,0"/></g><g id="fg"><path opacity="0.1" d="M85.355,14.645l-70.711,70.71c19.526,19.526,51.185,19.526,70.711,0 C104.882,65.83,104.882,34.171,85.355,14.645z"/><path opacity="0.1" d="M50,0v100c27.614,0,50-22.386,50-50S77.614,0,50,0z"/></g> 
 <path fill="#002a4a" id="i-414" d="M39,4V2h-5.6V0H14.6v2H9v2h2.8v42H9v2h30v-2h-2.8V4H39z M22,6h4v4h-4V6z M22,12h4v4h-4V12z M22,18h4v4h-4V18z M22,24h4v4h-4 V24z M22,30h4v4h-4V30z M16,6h4v4h-4V6z M16,12h4v4h-4V12z M16,18h4v4h-4V18z M16,24h4v4h-4V24z M16,30h4v4h-4V30z M29,46H19v-5 c0-2.76,2.24-5,5-5s5,2.24,5,5V46z M32,34h-4v-4h4V34z M32,28h-4v-4h4V28z M32,22h-4v-4h4V22z M32,16h-4v-4h4V16z M32,10h-4V6h4V10z "/> 
</defs>
<use x="0" y="0" class="bg" xlink:href="#bg"/>
<use x="26" y="26" xlink:href="#i-414"/>
<use x="0" y="0" xlink:href="#fg"/>
</svg>